<?xml version="1.0" encoding="UTF-8" standalone="no"?>
<svg
   xmlns:dc="http://purl.org/dc/elements/1.1/"
   xmlns:cc="http://creativecommons.org/ns#"
   xmlns:rdf="http://www.w3.org/1999/02/22-rdf-syntax-ns#"
   xmlns:svg="http://www.w3.org/2000/svg"
   xmlns="http://www.w3.org/2000/svg"
   xmlns:sodipodi="http://sodipodi.sourceforge.net/DTD/sodipodi-0.dtd"
   xmlns:inkscape="http://www.inkscape.org/namespaces/inkscape"
   aria-hidden="true"
   focusable="false"
   data-prefix="fas"
   data-icon="registered"
   class="svg-inline--fa fa-registered fa-w-16"
   role="img"
   viewBox="0 0 512 512"
   version="1.1"
   id="svg34"
   sodipodi:docname="registro.svg"
   inkscape:version="1.0.2-2 (e86c870879, 2021-01-15)">
  <metadata
     id="metadata40">
    <rdf:RDF>
      <cc:Work
         rdf:about="">
        <dc:format>image/svg+xml</dc:format>
        <dc:type
           rdf:resource="http://purl.org/dc/dcmitype/StillImage" />
      </cc:Work>
    </rdf:RDF>
  </metadata>
  <defs
     id="defs38" />
  <sodipodi:namedview
     pagecolor="#ffffff"
     bordercolor="#666666"
     borderopacity="1"
     objecttolerance="10"
     gridtolerance="10"
     guidetolerance="10"
     inkscape:pageopacity="0"
     inkscape:pageshadow="2"
     inkscape:window-width="1920"
     inkscape:window-height="1017"
     id="namedview36"
     showgrid="false"
     inkscape:zoom="1.6601562"
     inkscape:cx="256"
     inkscape:cy="256"
     inkscape:window-x="-8"
     inkscape:window-y="-8"
     inkscape:window-maximized="1"
     inkscape:current-layer="svg34" />
  <path
     fill="currentColor"
     d="M285.363 207.475c0 18.6-9.831 28.431-28.431 28.431h-29.876v-56.14h23.378c28.668 0 34.929 8.773 34.929 27.709zM504 256c0 136.967-111.033 248-248 248S8 392.967 8 256 119.033 8 256 8s248 111.033 248 248zM363.411 360.414c-46.729-84.825-43.299-78.636-44.702-80.98 23.432-15.172 37.945-42.979 37.945-74.486 0-54.244-31.5-89.252-105.498-89.252h-70.667c-13.255 0-24 10.745-24 24V372c0 13.255 10.745 24 24 24h22.567c13.255 0 24-10.745 24-24v-71.663h25.556l44.129 82.937a24.001 24.001 0 0 0 21.188 12.727h24.464c18.261-.001 29.829-19.591 21.018-35.587z"
     id="path32"
     style="fill:#ffffff" />
  <path
     style="fill:#000080;stroke-width:0.602353"
     d="m 174.68235,394.88393 c -9.10741,-2.53416 -15.70278,-9.70652 -17.46362,-18.99139 -0.89822,-4.7363 -0.83003,-236.2416 0.0708,-240.48407 1.57765,-7.42969 6.80393,-14.03134 13.64731,-17.23884 l 3.4443,-1.61434 h 47.58588 c 35.43124,0 48.97059,0.19689 53.00706,0.77082 14.95726,2.1267 27.59415,5.67131 37.76837,10.59392 15.35017,7.42689 27.12471,18.83684 34.4499,33.38316 8.31127,16.50451 11.25526,41.83477 7.28274,62.66133 -2.19186,11.49117 -7.98389,25.07132 -14.73108,34.53885 -4.39722,6.1701 -11.71989,13.73152 -17.18163,17.7418 -2.15474,1.58212 -3.91771,3.06976 -3.91771,3.30585 0,0.36617 9.37615,17.46714 40.10027,73.13807 6.74361,12.21916 8.06533,16.40442 7.05088,22.32674 -1.44439,8.43229 -5.88099,14.5006 -13.27446,18.1566 l -4.5952,2.27228 -16.05419,0.19351 c -18.00025,0.21696 -20.47088,-0.12224 -26.31007,-3.61223 -1.84271,-1.10135 -4.34437,-3.24845 -5.55925,-4.77132 -1.21489,-1.52288 -12.32012,-21.78452 -24.67831,-45.02588 L 252.85496,299.97176 H 239.6866 226.51823 l -0.16735,39.30353 -0.16735,39.30353 -1.89931,3.63196 c -3.43768,6.57372 -8.66118,10.80774 -15.54489,12.60025 -4.59848,1.19744 -29.82152,1.25143 -34.05698,0.0729 z M 265.7166,235.25481 c 8.09207,-1.7152 13.71157,-5.92455 16.84314,-12.61657 2.44769,-5.23059 3.13843,-9.71163 2.79615,-18.13942 -0.35086,-8.63917 -1.74577,-12.9817 -5.46661,-17.01833 -2.95205,-3.2026 -5.62143,-4.63433 -11.74038,-6.297 -4.07583,-1.10749 -6.79936,-1.28785 -23.14184,-1.53249 l -18.52235,-0.27728 v 28.37432 28.37431 l 17.61882,-0.0105 c 12.80382,-0.008 18.7104,-0.24183 21.61307,-0.85708 z"
     id="path42" />
  <path
     style="fill:#214478;stroke-width:0.602353"
     d="m 182.51294,395.10938 c -7.40591,-0.31538 -8.45097,-0.50405 -11.70789,-2.11371 -4.91837,-2.43081 -9.0121,-6.5908 -11.35663,-11.54045 l -1.93313,-4.0811 -0.46627,-55.97329 c -0.25645,-30.78531 -0.25645,-85.41813 0,-121.40628 l 0.46627,-65.433 2.2684,-4.58885 c 2.61861,-5.29733 6.25083,-8.91893 11.54498,-11.51123 l 3.46353,-1.69592 49.78978,0.24558 c 54.53639,0.26898 51.83795,0.10531 67.78336,4.11147 34.03058,8.54992 54.78422,29.14918 61.20434,60.74905 5.59283,27.52793 1.17622,52.73845 -13.09199,74.7307 -3.26027,5.02519 -12.72193,15.05469 -19.1224,20.27002 l -3.01176,2.45408 1.10294,2.34148 c 0.60662,1.28782 10.47342,19.37371 21.92621,40.19087 11.4528,20.81717 21.52777,39.52023 22.38883,41.56235 1.27183,3.01636 1.56555,4.67355 1.56555,8.83297 0,4.50217 -0.23073,5.60704 -1.91211,9.15619 -2.43217,5.13397 -6.17763,8.87376 -11.64445,11.62681 l -4.31447,2.17273 -17.56801,-0.18375 -17.56802,-0.18375 -4.0064,-1.89816 c -2.20352,-1.04399 -5.04964,-2.94886 -6.32471,-4.23305 -2.60898,-2.62764 -9.61551,-15.19608 -33.09477,-59.36605 l -15.60471,-29.35609 -13.31032,-0.009 -13.31032,-0.009 -0.39047,6.77648 c -0.21476,3.72705 -0.3917,21.3757 -0.39321,39.21921 l -0.003,32.44274 -1.88238,3.53171 c -2.36502,4.43724 -7.34159,9.18901 -11.72587,11.1962 -3.37342,1.5444 -4.55988,1.68998 -17.7141,2.17362 -2.15341,0.0792 -7.57459,-0.0119 -12.04706,-0.20234 z m 84.19779,-159.89689 c 9.46976,-2.23264 15.42581,-8.05603 17.88121,-17.48296 1.10649,-4.24811 1.23696,-15.98587 0.23324,-20.98375 -2.1635,-10.77285 -10.91993,-16.39956 -26.41399,-16.9731 -3.81086,-0.14107 -12.55331,-0.38286 -19.42766,-0.53732 l -12.49882,-0.28082 v 28.58391 28.5839 l 18.22117,-0.009 c 13.96222,-0.007 19.10556,-0.21742 22.00485,-0.90097 z"
     id="path44" />
</svg>
